<?xml version="1.0" encoding="utf-8"?>
<!-- Generator: Adobe Illustrator 23.0.2, SVG Export Plug-In . SVG Version: 6.00 Build 0)  -->
<svg version="1.1" id="Layer_1" xmlns="http://www.w3.org/2000/svg" xmlns:xlink="http://www.w3.org/1999/xlink" x="0px" y="0px"
	 viewBox="0 0 257 257" style="enable-background:new 0 0 257 257;" xml:space="preserve">
<style type="text/css">
	.st0{fill:#00FFFF;stroke:#000000;stroke-miterlimit:10;}
	.st1{stroke:#000000;stroke-miterlimit:10;}
	.st2{fill:#FFFFFF;stroke:#000000;stroke-miterlimit:10;}
</style>
<title>icon</title>
<path class="st0" d="M392.6,107.2"/>
<ellipse class="st1" cx="129" cy="127.5" rx="90.5" ry="92"/>
<ellipse class="st2" cx="129.5" cy="127.5" rx="35" ry="33"/>
<polygon class="st1" points="54.3,84.3 30.9,56.6 56.7,28.4 85.6,51.1 "/>
<polygon class="st1" points="107.8,41.4 112.1,4.5 148.9,4.5 155.1,43.8 "/>
<polygon class="st1" points="177.2,54.6 206.7,32 235.6,59.1 210.4,87.1 "/>
<polygon class="st1" points="54.3,163.9 30.9,191.5 56.7,219.8 85.6,197.1 "/>
<polygon class="st1" points="172.3,202.2 201.8,224.8 230.7,197.7 205.5,169.7 "/>
<polygon class="st1" points="108.8,211.6 113.1,248.5 149.9,248.5 156.1,209.2 "/>
<polygon class="st1" points="53.8,105.5 14.5,105.5 14.5,143.6 51.4,148.8 "/>
<polygon class="st1" points="206.2,105.5 245.5,105.5 245.5,143.6 208.6,148.8 "/>
<path class="st1" d="M144.8-5.7"/>
<path class="st1" d="M289.8,235.6"/>
</svg>
